<mxfile host="" modified="2020-06-22T09:08:33.815Z" agent="5.0 (Windows NT 10.0; Win64; x64) AppleWebKit/537.36 (KHTML, like Gecko) Code/1.46.1 Chrome/78.0.3904.130 Electron/7.3.1 Safari/537.36" etag="GKGuGUF-vXSnOu0PZ7BE" version="13.1.3">
    <diagram id="6hGFLwfOUW9BJ-s0fimq" name="Page-1">
        <mxGraphModel dx="695" dy="320" grid="1" gridSize="10" guides="1" tooltips="1" connect="1" arrows="1" fold="1" page="1" pageScale="1" pageWidth="827" pageHeight="1169" background="none" math="0" shadow="0">
            <root>
                <mxCell id="0"/>
                <mxCell id="1" parent="0"/>
                <mxCell id="3" value="" style="rounded=1;whiteSpace=wrap;html=1;" vertex="1" parent="1">
                    <mxGeometry x="230" y="50" width="120" height="60" as="geometry"/>
                </mxCell>
                <mxCell id="4" value="hmap" style="rounded=0;whiteSpace=wrap;html=1;" vertex="1" parent="1">
                    <mxGeometry x="90" y="110" width="80" height="30" as="geometry"/>
                </mxCell>
                <mxCell id="5" value="count" style="rounded=0;whiteSpace=wrap;html=1;fillColor=#007FFF;strokeColor=#001DBC;fontColor=#ffffff;" vertex="1" parent="1">
                    <mxGeometry x="90" y="140" width="80" height="30" as="geometry"/>
                </mxCell>
                <mxCell id="6" value="flag" style="rounded=0;whiteSpace=wrap;html=1;fillColor=#007FFF;strokeColor=#001DBC;fontColor=#ffffff;" vertex="1" parent="1">
                    <mxGeometry x="90" y="170" width="80" height="30" as="geometry"/>
                </mxCell>
                <mxCell id="7" value="B" style="rounded=0;whiteSpace=wrap;html=1;fillColor=#007FFF;strokeColor=#001DBC;fontColor=#ffffff;" vertex="1" parent="1">
                    <mxGeometry x="90" y="200" width="80" height="30" as="geometry"/>
                </mxCell>
                <mxCell id="8" value="noverflow" style="rounded=0;whiteSpace=wrap;html=1;fillColor=#007FFF;strokeColor=#001DBC;fontColor=#ffffff;" vertex="1" parent="1">
                    <mxGeometry x="90" y="230" width="80" height="30" as="geometry"/>
                </mxCell>
                <mxCell id="9" value="hash0" style="rounded=0;whiteSpace=wrap;html=1;fillColor=#007FFF;strokeColor=#001DBC;fontColor=#ffffff;" vertex="1" parent="1">
                    <mxGeometry x="90" y="260" width="80" height="30" as="geometry"/>
                </mxCell>
                <mxCell id="10" value="buckets" style="rounded=0;whiteSpace=wrap;html=1;fillColor=#007FFF;strokeColor=#001DBC;fontColor=#ffffff;" vertex="1" parent="1">
                    <mxGeometry x="90" y="290" width="80" height="30" as="geometry"/>
                </mxCell>
                <mxCell id="11" value="buckets" style="rounded=0;whiteSpace=wrap;html=1;fillColor=#007FFF;strokeColor=#001DBC;fontColor=#ffffff;" vertex="1" parent="1">
                    <mxGeometry x="90" y="320" width="80" height="30" as="geometry"/>
                </mxCell>
                <mxCell id="12" value="&lt;div style=&quot;font-size: 14px; line-height: 19px;&quot;&gt;oldbuckets&lt;/div&gt;" style="rounded=0;whiteSpace=wrap;html=1;fillColor=#007FFF;strokeColor=#001DBC;labelBackgroundColor=none;fontColor=#ffffff;" vertex="1" parent="1">
                    <mxGeometry x="90" y="350" width="80" height="30" as="geometry"/>
                </mxCell>
                <mxCell id="13" value="&lt;div style=&quot;font-size: 14px; line-height: 19px;&quot;&gt;nevacuate&lt;/div&gt;" style="rounded=0;whiteSpace=wrap;html=1;fillColor=#007FFF;strokeColor=#001DBC;labelBackgroundColor=none;fontColor=#ffffff;" vertex="1" parent="1">
                    <mxGeometry x="90" y="380" width="80" height="30" as="geometry"/>
                </mxCell>
                <mxCell id="14" value="&lt;div style=&quot;font-size: 14px; line-height: 19px;&quot;&gt;&lt;div style=&quot;line-height: 19px&quot;&gt;extra&lt;/div&gt;&lt;/div&gt;" style="rounded=0;whiteSpace=wrap;html=1;fillColor=#007FFF;strokeColor=#001DBC;labelBackgroundColor=none;fontColor=#ffffff;" vertex="1" parent="1">
                    <mxGeometry x="90" y="410" width="80" height="30" as="geometry"/>
                </mxCell>
            </root>
        </mxGraphModel>
    </diagram>
</mxfile>